HIERARCHY
ROOT pelvis
{
  OFFSET 0 100 0
  CHANNELS 6 Xposition Yposition Zposition Zrotation Xrotation Yrotation
  JOINT pelvis_right_femur
  {
    OFFSET -10.78128 -3.44521 -0.5502486
    CHANNELS 3 Zrotation Xrotation Yrotation
    JOINT right_femur_tibia
    {
      OFFSET -0.8047443 -44.0398 -0.1307829
      CHANNELS 3 Zrotation Xrotation Yrotation
      JOINT right_tibia_foot
      {
        OFFSET 3.006224 -47.83518 -5
        CHANNELS 3 Zrotation Xrotation Yrotation
        End Site
        {
          OFFSET 0 -5 15
        }
      }
    }
  }
  JOINT pelvis_left_femur
  {
    OFFSET 10.78128 -3.44521 -0.5502486
    CHANNELS 3 Zrotation Xrotation Yrotation
    JOINT left_femur_tibia
    {
      OFFSET 0.8047443 -44.0398 -0.1307829
      CHANNELS 3 Zrotation Xrotation Yrotation
      JOINT left_tibia_foot
      {
        OFFSET -4.370144 -48.10324 -4.275266
        CHANNELS 3 Zrotation Xrotation Yrotation
        End Site
        {
          OFFSET 0 -5 15
        }
      }
    }
  }
  JOINT pelvis_spine1
  {
    OFFSET 0 6.468898 -3.129235
    CHANNELS 3 Zrotation Xrotation Yrotation
    JOINT spine1
    {
      OFFSET 0 23.15396 4.99043
      CHANNELS 3 Zrotation Xrotation Yrotation
      JOINT spine2
      {
        OFFSET 0 20.79997 -5.064912
        CHANNELS 3 Zrotation Xrotation Yrotation
        JOINT neck
        {
          OFFSET 0 14.38658 9.616178
          CHANNELS 3 Zrotation Xrotation Yrotation
          End Site
          {
            OFFSET 0 20 0
          }
        }
      }
      JOINT right_manubrium
      {
        OFFSET -5.722621 16.35077 3.967754
        CHANNELS 3 Zrotation Xrotation Yrotation
        JOINT right_clavicle
        {
          OFFSET -13.16364 1.694482 -4.693211
          CHANNELS 3 Zrotation Xrotation Yrotation
          JOINT right_humerus
          {
            OFFSET -28.5034 -0.3100689 -2.792744
            CHANNELS 3 Zrotation Xrotation Yrotation
            JOINT right_radius
            {
              OFFSET -25.15693 0.02248979 -1.271978
              CHANNELS 3 Zrotation Xrotation Yrotation
              End Site
              {
                OFFSET -15 0 0
              }
            }
          }
        }
      }
      JOINT left_manubrium
      {
        OFFSET 5.722621 16.35077 3.967754
        CHANNELS 3 Zrotation Xrotation Yrotation
        JOINT left_clavicle
        {
          OFFSET 13.16364 1.694482 -4.693211
          CHANNELS 3 Zrotation Xrotation Yrotation
          JOINT left_humerus
          {
            OFFSET 29.39168 -1.063119 -2.237045
            CHANNELS 3 Zrotation Xrotation Yrotation
            JOINT left_radius
            {
              OFFSET 24.59957 -0.9528479 0.9047498
              CHANNELS 3 Zrotation Xrotation Yrotation
              End Site
              {
                OFFSET 15 -0 -0
              }
            }
          }
        }
      }
    }
  }
}
MOTION
Frames: 15
Frame Time: 0.0416666666667
0 103.5113 0 2.530622 -0.3470616 0.1854556 2.84807 -15.8504 10.8342 -0 36.86832 -0 -2.869685 -19.05491 -2.279302 -8.93673 9.57897 -23.06735 -0 4.564934 -0 22.67579 -8.447115 29.87675 -2.538011 -2.191851 4.625677 2.47518 10.02277 -7.265095 1.521679 21.46023 6.587307 2.797812 -24.19398 9.684792 5.695199 -18.52212 11.41144 86.36501 38.02067 -18.00853 -0 0 14.47225 -7.82348 9.010944 4.714226 5.928357 -19.75075 -1.11008 -90.87945 20.47079 19.32953 0 0 -15.73539 13.13753 13.5881 -2.191078
0.5224403 103.4952 1.554059 1.928099 0.8206725 0.3180831 4.109692 -18.51523 11.85166 -0 37.14859 -0 -3.160334 -18.53773 -2.44413 -8.801832 9.415218 -22.99907 -0 4.916151 -0 22.88984 -9.158437 30.40502 -2.45849 -1.979216 4.39626 2.63652 10.05828 -7.392342 1.532342 21.32727 6.752605 2.837585 -24.5452 9.942062 5.70395 -18.27537 11.41296 87.09033 38.4023 -18.90576 -0 0 13.60079 -7.048503 8.959392 4.379995 5.970712 -19.82466 -1.39394 -90.27407 20.45222 18.68317 0 0 -17.35252 13.62374 12.95439 -2.551329
0.885578 103.4126 3.444463 1.408384 1.075597 0.4963937 4.620232 -20.78294 9.774361 -0 34.12865 -0 -4.549319 -15.24289 -2.364184 -8.27123 10.52171 -22.06065 -0 5.88315 -0 18.27389 -13.07465 28.91418 -2.387021 -1.78364 4.235085 2.768183 10.08819 -7.471542 1.524906 21.22023 6.840104 2.852829 -24.73791 10.03455 5.679971 -18.06622 11.43792 87.51861 38.52626 -19.46663 -0 0 12.87056 -6.670502 8.934034 4.331289 5.966468 -19.88704 -1.662278 -89.72594 20.47344 18.12786 0 0 -18.71644 13.7828 12.33051 -2.559851
1.17321 103.3019 5.607754 0.859443 1.694292 0.6955642 5.35557 -23.53345 8.880059 -0 31.66495 -0 -5.360732 -12.80277 -2.252817 -7.86451 11.08548 -21.29556 -0 6.614529 -0 15.61739 -15.63449 27.76709 -2.322385 -1.670171 4.113877 2.88175 10.09971 -7.545715 1.513011 21.12278 6.930044 2.868372 -24.94916 10.13982 5.655438 -17.93217 11.45321 87.87698 38.60042 -19.97189 -0 0 12.31878 -6.341235 8.912434 4.26845 5.986434 -19.96367 -1.853177 -89.34561 20.52886 17.75173 0 0 -19.8073 13.93785 11.8657 -2.582668
1.430422 103.0902 8.118981 0.4219808 2.210674 0.9461843 5.87482 -26.16821 7.776983 -0 28.44365 -0 -6.023372 -10.22771 -1.89071 -7.519644 11.53076 -20.32411 -0 7.409764 -0 13.61223 -17.56867 26.3535 -2.270016 -1.587278 4.028646 2.975151 10.10984 -7.603117 1.496936 21.0489 6.984921 2.873681 -25.09376 10.18581 5.628613 -17.82977 11.47306 88.1072 38.57645 -20.33037 -0 0 11.88985 -6.155359 8.896141 4.278488 5.992064 -20.03412 -2.007286 -89.05842 20.59856 17.47059 0 0 -20.63642 13.98178 11.49487 -2.506504
1.687814 102.7669 11.03668 -0.008542469 2.757769 1.270286 6.379543 -28.84288 6.734647 -0 24.92607 -0 -6.574142 -7.650586 -1.363903 -7.187119 11.90958 -19.26883 -0 8.343056 -0 12.1372 -18.93045 24.85511 -2.223638 -1.536809 3.974717 3.052891 10.12348 -7.653298 1.477528 20.99308 7.017891 2.874826 -25.21026 10.19742 5.604779 -17.76189 11.49377 88.25984 38.47826 -20.60868 -0 0 11.56715 -6.045917 8.87251 4.312257 5.994174 -20.10848 -2.125023 -88.8794 20.69666 17.29827 0 0 -21.23344 13.95886 11.22314 -2.36747
1.966682 102.334 14.42479 -0.4664119 3.247899 1.682567 6.866332 -31.29696 5.660455 -0 21.28661 -0 -7.114506 -5.101941 -0.6978616 -6.803165 12.28287 -18.12861 -0 9.613411 -0 10.83344 -19.70028 23.14397 -2.185327 -1.505021 3.946735 3.113978 10.14276 -7.694272 1.456752 20.95698 7.025716 2.870983 -25.28419 10.16961 5.584943 -17.71599 11.51621 88.33791 38.32108 -20.79873 -0 0 11.33341 -6.015248 8.844789 4.374002 5.986927 -20.17938 -2.21537 -88.78122 20.80839 17.20397 0 0 -21.61971 13.86813 11.03352 -2.168844
2.279392 101.8394 18.33101 -1.012799 3.640521 2.179943 7.40758 -33.24308 4.652016 -0 17.95036 -0 -7.708879 -2.789065 0.004035428 -6.293056 12.64564 -16.95573 -0 11.50985 -0 9.345593 -19.7799 21.11452 -2.152492 -1.488175 3.940768 3.160307 10.16819 -7.728248 1.435116 20.93671 7.014534 2.864606 -25.32817 10.1124 5.569508 -17.68985 11.53911 88.36208 38.12123 -20.92401 -0 0 11.17381 -6.040648 8.81131 4.450589 5.973666 -20.24842 -2.282551 -88.75447 20.93368 17.17949 0 0 -21.83221 13.72737 10.91375 -1.925268
2.627686 101.3827 22.77776 -1.668592 3.885699 2.726867 8.031601 -34.25365 3.804194 -0 15.35555 -0 -8.394232 -0.9983636 0.5916032 -5.613504 12.90795 -15.77562 -0 14.47342 -0 7.386947 -18.99161 18.6668 -2.124733 -1.480814 3.952266 3.192737 10.1984 -7.755023 1.413578 20.92949 6.988205 2.856688 -25.34482 10.03214 5.557839 -17.67866 11.56174 88.34371 37.89633 -20.993 -0 0 11.07511 -6.112091 8.775123 4.538348 5.955197 -20.3132 -2.331237 -88.78045 21.06463 17.20687 0 0 -21.9071 13.5491 10.84829 -1.650497
3.002663 101.1186 27.7508 -2.387627 3.957458 3.245573 8.693876 -33.87596 3.193438 -0 13.86348 -0 -9.158187 -0.02746878 0.8896972 -4.795901 12.8533 -14.58317 -0 19.07413 -0 4.908267 -17.15388 15.83773 -2.100595 -1.48 3.977087 3.213432 10.23171 -7.775565 1.392456 20.93146 6.951957 2.848516 -25.34221 9.936988 5.548921 -17.67968 11.58338 88.29598 37.65989 -21.02024 -0 0 11.02379 -6.216199 8.737847 4.632132 5.933807 -20.37384 -2.365471 -88.84486 21.19794 17.27338 0 0 -21.88297 13.34686 10.82238 -1.356974
3.390937 101.2275 33.18981 -3.030746 3.832073 3.618928 9.230632 -31.80831 2.787738 -0 13.54191 -0 -9.944572 -0.01035062 0.7952242 -3.975282 12.125 -13.33005 -0 25.84476 -0 2.225232 -14.24649 12.89257 -2.079241 -1.483 4.011155 3.224611 10.26629 -7.790617 1.372051 20.93938 6.909916 2.840763 -25.3258 9.833417 5.54168 -17.68963 11.60362 88.22885 37.42292 -21.01651 -0 0 11.00729 -6.343061 8.701636 4.729215 5.910931 -20.42993 -2.389121 -88.93315 21.32951 17.36543 0 0 -21.79406 13.13152 10.82235 -1.05538
3.784656 101.8462 38.97928 -3.395751 3.443378 3.719644 9.421298 -28.12025 2.447989 -0 14.01037 -0 -10.66367 -0.7635441 0.3906895 -3.339713 10.30059 -11.97404 -0 34.8524 -0 -0.09477251 -10.62793 10.29023 -2.059771 -1.487942 4.050877 3.228822 10.30071 -7.801352 1.352415 20.95044 6.865589 2.833874 -25.30118 9.726826 5.535201 -17.70575 11.62232 88.15108 37.19249 -20.99268 -0 0 11.01397 -6.48349 8.667695 4.827219 5.88782 -20.48192 -2.405681 -89.03382 21.45724 17.47207 0 0 -21.66956 12.91176 10.83673 -0.7536245
4.181171 102.9832 44.9458 -3.312548 2.662774 3.467955 9.141707 -23.28779 2.041451 -0 14.52208 -0 -11.1901 -1.840524 -0.0693194 -2.991595 7.099962 -10.55896 -0 45.15754 -0 -1.6139 -7.063619 8.493672 -2.041574 -1.49331 4.0932 3.22843 10.33396 -7.808942 1.333541 20.96253 6.821443 2.827989 -25.27239 9.620998 5.528821 -17.7254 11.63956 88.06931 36.9729 -20.95745 -0 0 11.03385 -6.630356 8.636764 4.924618 5.865161 -20.53028 -2.418183 -89.13763 21.57957 17.5841 0 0 -21.53197 12.69371 10.85654 -0.457249
4.567774 104.481 50.8796 -2.758189 1.378048 2.889898 8.468364 -17.94085 1.575361 -0 14.37488 -0 -11.37924 -2.84779 -0.3681178 -2.840205 2.631807 -9.211133 -0 54.73817 -0 -2.324892 -4.381975 7.790109 -2.02416 -1.498022 4.135737 3.225531 10.36552 -7.814563 1.315337 20.97418 6.779136 2.823103 -25.24261 9.518425 5.522128 -17.74639 11.65555 87.98857 36.76602 -20.91799 -0 0 11.05888 -6.778047 8.60897 5.020267 5.843314 -20.57566 -2.429109 -89.23801 21.69597 17.69468 0 0 -21.39755 12.48139 10.87523 -0.1695726
4.915994 106.0628 56.59201 -1.89441 -0.3760553 2.115471 7.630828 -12.55091 1.206354 -0 13.35451 -0 -11.13646 -3.732507 -0.5134668 -2.652197 -2.582475 -8.017453 -0 61.29218 -0 -2.552402 -3.012139 8.229065 -2.007205 -1.50131 4.176745 3.2218 10.39517 -7.819238 1.297692 20.98447 6.739619 2.819111 -25.21392 9.420492 5.514912 -17.76699 11.67054 87.91233 36.57219 -20.8796 -0 0 11.08297 -6.922599 8.584112 5.113443 5.822357 -20.6187 -2.440355 -89.33061 21.80632 17.799 0 0 -21.27694 12.27706 10.88843 0.1077448
